<?xml version="1.0" encoding="iso-8859-1"?>
<!-- Generator: Adobe Illustrator 19.0.0, SVG Export Plug-In . SVG Version: 6.00 Build 0)  -->
<svg version="1.1" id="Layer_1" xmlns="http://www.w3.org/2000/svg" xmlns:xlink="http://www.w3.org/1999/xlink" x="0px" y="0px"
	 viewBox="0 0 512 512" style="enable-background:new 0 0 512 512;" xml:space="preserve">
<g>
	<g>
		<path d="M457.319,35.466c-14.855-9.572-22.303-17.02-31.877-31.876C423.998,1.352,421.516,0,418.854,0
			c-2.664,0-5.145,1.353-6.588,3.592c-9.571,14.855-17.018,22.302-31.875,31.875c-2.239,1.443-3.592,3.924-3.592,6.588
			c0,2.663,1.353,5.145,3.592,6.588c14.856,9.572,22.303,17.02,31.875,31.875c1.443,2.239,3.924,3.592,6.588,3.592
			c2.663,0,5.145-1.352,6.588-3.592c9.573-14.855,17.021-22.303,31.877-31.876c2.239-1.443,3.592-3.924,3.592-6.588
			C460.911,39.391,459.558,36.909,457.319,35.466z M418.854,62.488c-6.117-8.166-12.266-14.315-20.433-20.433
			c8.167-6.118,14.316-12.267,20.433-20.433c6.117,8.166,12.267,14.315,20.433,20.433C431.122,48.172,424.972,54.322,418.854,62.488
			z"/>
	</g>
</g>
<g>
	<g>
		<path d="M342.598,62.506l-22.073-22.071c-3.059-3.061-8.022-3.06-11.083,0l-22.07,22.071c-1.469,1.469-2.295,3.463-2.295,5.541
			c0,2.078,0.826,4.072,2.296,5.542l22.072,22.071c1.53,1.531,3.536,2.296,5.541,2.296c2.005,0,4.011-0.765,5.542-2.296
			l22.071-22.071c1.469-1.47,2.295-3.463,2.295-5.541C344.894,65.97,344.069,63.976,342.598,62.506z M314.986,79.036l-10.991-10.989
			l10.989-10.989l10.991,10.989L314.986,79.036z"/>
	</g>
</g>
<g>
	<g>
		<path d="M469.496,230.888l-66.568-89.824c1.158-0.786,2.345-1.578,3.603-2.389c2.239-1.443,3.592-3.925,3.592-6.588
			s-1.353-5.145-3.593-6.587c-14.855-9.571-22.303-17.018-31.875-31.874c-1.443-2.239-3.924-3.592-6.588-3.592
			c-2.663,0-5.145,1.353-6.588,3.592c-9.104,14.128-16.3,21.559-29.759,30.486H142.308c-12.942,0-25.27,6.207-32.978,16.606
			L42.504,230.89c-11.341,15.302-10.723,36.188,1.505,50.79l180.518,215.624C232.346,506.644,243.818,512,256,512
			c12.182,0,23.654-5.356,31.473-14.696l77.084-92.076c2.778-3.319,2.34-8.261-0.979-11.04c-3.32-2.778-8.261-2.34-11.039,0.978
			l-69.85,83.435l62.733-215.903h115.38c-0.97,3.183-2.567,6.218-4.815,8.902l-81.856,97.208c-2.788,3.31-2.364,8.255,0.947,11.042
			c3.31,2.787,8.255,2.364,11.042-0.947l81.87-97.225C480.219,267.076,480.838,246.189,469.496,230.888z M368.068,111.657
			c6.117,8.165,12.266,14.315,20.432,20.432c-8.167,6.118-14.314,12.266-20.432,20.432c-6.118-8.166-12.266-14.315-20.433-20.432
			C355.801,125.972,361.951,119.822,368.068,111.657z M55.097,240.22l50.965-68.768l24.052,34.676
			c1.522,2.195,3.964,3.371,6.447,3.371c1.541,0,3.098-0.453,4.46-1.398c3.556-2.467,4.44-7.35,1.974-10.906l-27.079-39.039
			l6.008-8.107c4.765-6.427,12.386-10.265,20.386-10.265h98.506l-68.821,99.22l-10.153-14.639c-2.466-3.556-7.348-4.44-10.907-1.973
			c-3.556,2.466-4.44,7.349-1.974,10.906l9.519,13.725H51.515C52.346,244.639,53.525,242.341,55.097,240.22z M128.243,357.878h8.639
			c4.329,0,7.837-3.509,7.837-7.837c0-4.328-3.508-7.837-7.837-7.837h-21.76l-20.995-25.078h31.261c4.329,0,7.837-3.509,7.837-7.837
			s-3.508-7.837-7.837-7.837H81.005l-24.978-29.836c-2.253-2.692-3.854-5.732-4.826-8.92h115.378L229.311,478.6L128.243,357.878z
			 M261.386,495.749c-1.751,0.379-3.555,0.578-5.385,0.578c-1.831,0-3.633-0.199-5.385-0.578l-67.716-233.052h83.55
			c4.329,0,7.837-3.509,7.837-7.837c0-4.328-3.508-7.837-7.837-7.837h-80.943l70.089-101.047l70.089,101.047h-21.618
			c-4.329,0-7.837,3.509-7.837,7.837c0,4.328,3.508,7.837,7.837,7.837h25.036L261.386,495.749z M339.197,239.006l-68.821-99.22
			h60.919c13.732,9.052,20.988,16.492,30.186,30.766c1.443,2.239,3.925,3.592,6.588,3.592c2.664,0,5.145-1.353,6.588-3.592
			c5.414-8.402,10.149-14.432,15.928-19.82l5.083,6.86L339.197,239.006z M352.711,247.024v-0.001l52.81-76.136l51.384,69.334
			c1.572,2.12,2.751,4.419,3.582,6.803H352.711z"/>
	</g>
</g>
<g>
</g>
<g>
</g>
<g>
</g>
<g>
</g>
<g>
</g>
<g>
</g>
<g>
</g>
<g>
</g>
<g>
</g>
<g>
</g>
<g>
</g>
<g>
</g>
<g>
</g>
<g>
</g>
<g>
</g>
</svg>
