<svg id="visual" viewBox="0 0 960 100" width="960" height="100" xmlns="http://www.w3.org/2000/svg" xmlns:xlink="http://www.w3.org/1999/xlink" version="1.1"><path d="M0 94L22.8 89.2C45.7 84.3 91.3 74.7 137 66.5C182.7 58.3 228.3 51.7 274 54.7C319.7 57.7 365.3 70.3 411.2 68.5C457 66.7 503 50.3 548.8 39C594.7 27.7 640.3 21.3 686 29C731.7 36.7 777.3 58.3 823 59.8C868.7 61.3 914.3 42.7 937.2 33.3L960 24L960 101L937.2 101C914.3 101 868.7 101 823 101C777.3 101 731.7 101 686 101C640.3 101 594.7 101 548.8 101C503 101 457 101 411.2 101C365.3 101 319.7 101 274 101C228.3 101 182.7 101 137 101C91.3 101 45.7 101 22.8 101L0 101Z" fill="#BAE6FD" stroke-linecap="round" stroke-linejoin="miter"></path></svg>